<mxfile host="app.diagrams.net" modified="2024-02-07T17:05:35.972Z" agent="Mozilla/5.0 (X11; Linux x86_64) AppleWebKit/537.36 (KHTML, like Gecko) Chrome/121.0.0.0 Safari/537.36" etag="UuIQfl112KxhopFauOtl" version="23.1.1" type="device">
  <diagram name="Page-1" id="gf7WvVB2u6d4l5ZcaxYx">
    <mxGraphModel dx="2062" dy="1172" grid="1" gridSize="10" guides="1" tooltips="1" connect="1" arrows="1" fold="1" page="1" pageScale="1" pageWidth="850" pageHeight="1100" math="0" shadow="0">
      <root>
        <mxCell id="0" />
        <mxCell id="1" parent="0" />
        <mxCell id="6EBNCYEFULhQae5MWOHI-1" value="" style="rounded=0;whiteSpace=wrap;html=1;" parent="1" vertex="1">
          <mxGeometry x="10" y="10" width="190" height="240" as="geometry" />
        </mxCell>
        <mxCell id="6EBNCYEFULhQae5MWOHI-3" value="ra: 0x400020" style="rounded=0;whiteSpace=wrap;html=1;" parent="1" vertex="1">
          <mxGeometry x="10" y="10" width="190" height="40" as="geometry" />
        </mxCell>
        <mxCell id="6EBNCYEFULhQae5MWOHI-4" value="bp: 0x76349784" style="rounded=0;whiteSpace=wrap;html=1;" parent="1" vertex="1">
          <mxGeometry x="10" y="50" width="190" height="40" as="geometry" />
        </mxCell>
        <mxCell id="6EBNCYEFULhQae5MWOHI-5" value="buffer: ????" style="rounded=0;whiteSpace=wrap;html=1;" parent="1" vertex="1">
          <mxGeometry x="10" y="130" width="190" height="40" as="geometry" />
        </mxCell>
        <mxCell id="A2mBMVntU5m6MFU5MNY4-1" value="canary: *RANDOM_VALUE*" style="rounded=0;whiteSpace=wrap;html=1;" vertex="1" parent="1">
          <mxGeometry x="10" y="90" width="190" height="40" as="geometry" />
        </mxCell>
      </root>
    </mxGraphModel>
  </diagram>
</mxfile>
